<svg width="637" height="39" viewBox="0 0 637 39" fill="none" xmlns="http://www.w3.org/2000/svg">
<path d="M11.4373 13.8921V27.3575H9.26302V13.8921H11.4373ZM16.2428 13.2436V27.3575H14.0685V13.2436H16.2428ZM21.0482 13.2436V27.3575H18.8739V13.2436H21.0482ZM33.3684 16.8484V27.3575H31.175V25.0687C30.908 25.8444 30.4439 26.4483 29.7827 26.8807C29.1215 27.3003 28.3522 27.5101 27.4749 27.5101C26.2542 27.5101 25.2752 27.1159 24.5377 26.3275C23.8002 25.5392 23.4315 24.4139 23.4315 22.9517V16.8484H25.6058V22.7228C25.6058 23.6764 25.8473 24.4139 26.3305 24.9352C26.8137 25.4438 27.4749 25.6981 28.3141 25.6981C29.1787 25.6981 29.8717 25.4184 30.393 24.8589C30.9144 24.2995 31.175 23.4857 31.175 22.4176V16.8484H33.3684ZM49.1136 16.6767C50.3597 16.6767 51.3515 17.0709 52.089 17.8592C52.8392 18.6476 53.2143 19.7729 53.2143 21.2351V27.3575H51.04V21.464C51.04 20.5485 50.8111 19.8428 50.3534 19.3469C49.8956 18.8383 49.2662 18.584 48.4651 18.584C47.6132 18.584 46.933 18.8574 46.4244 19.4041C45.9285 19.9382 45.6805 20.7265 45.6805 21.7691V27.3575H43.5062V21.464C43.5062 20.5485 43.2773 19.8428 42.8196 19.3469C42.3618 18.8383 41.7324 18.584 40.9314 18.584C40.0795 18.584 39.3992 18.8574 38.8906 19.4041C38.3947 19.9382 38.1467 20.7265 38.1467 21.7691V27.3575H35.9724V16.8484H38.1467V19.0417C38.4138 18.2788 38.8588 17.6939 39.4818 17.287C40.1049 16.8801 40.836 16.6767 41.6752 16.6767C42.5526 16.6767 43.3091 16.8929 43.9449 17.3252C44.5934 17.7575 45.0638 18.3805 45.3563 19.1943C45.6614 18.406 46.151 17.7893 46.8249 17.3442C47.4988 16.8992 48.2617 16.6767 49.1136 16.6767ZM55.4479 13.7967C55.4479 13.428 55.575 13.1228 55.8293 12.8812C56.0836 12.6396 56.4206 12.5188 56.8402 12.5188C57.2598 12.5188 57.5968 12.6396 57.8511 12.8812C58.1181 13.1228 58.2516 13.428 58.2516 13.7967C58.2516 14.1654 58.1181 14.4642 57.8511 14.6931C57.5968 14.922 57.2598 15.0364 56.8402 15.0364C56.4206 15.0364 56.0836 14.922 55.8293 14.6931C55.575 14.4642 55.4479 14.1654 55.4479 13.7967ZM57.9274 16.8484V27.3575H55.7531V16.8484H57.9274ZM66.4329 16.6767C67.6536 16.6767 68.6327 17.0709 69.3702 17.8592C70.1076 18.6476 70.4764 19.7729 70.4764 21.2351V27.3575H68.3021V21.464C68.3021 20.5231 68.0605 19.7983 67.5773 19.2897C67.0941 18.7684 66.4329 18.5077 65.5937 18.5077C64.7291 18.5077 64.0361 18.7874 63.5148 19.3469C62.9935 19.8936 62.7328 20.7011 62.7328 21.7691V27.3575H60.5585V16.8484H62.7328V19.1562C63.0125 18.3678 63.483 17.7575 64.1442 17.3252C64.8054 16.8929 65.5683 16.6767 66.4329 16.6767ZM77.8255 16.7148C78.8428 16.7148 79.7582 16.931 80.572 17.3633C81.3858 17.7956 82.0216 18.4187 82.4793 19.2325C82.9371 20.0462 83.1659 20.9999 83.1659 22.0934C83.1659 23.1996 82.9371 24.1596 82.4793 24.9734C82.0216 25.7872 81.3858 26.4102 80.572 26.8425C79.7582 27.2748 78.8428 27.491 77.8255 27.491C76.8083 27.491 75.8928 27.2748 75.079 26.8425C74.278 26.4102 73.6422 25.7872 73.1718 24.9734C72.714 24.1469 72.4851 23.1869 72.4851 22.0934C72.4851 20.9999 72.714 20.0462 73.1718 19.2325C73.6422 18.4187 74.278 17.7956 75.079 17.3633C75.8928 16.931 76.8083 16.7148 77.8255 16.7148ZM77.8255 18.6031C77.2661 18.6031 76.7511 18.7302 76.2806 18.9845C75.8102 19.2388 75.4287 19.633 75.1363 20.167C74.8565 20.6883 74.7167 21.3305 74.7167 22.0934C74.7167 22.869 74.8565 23.5175 75.1363 24.0388C75.4287 24.5601 75.8102 24.9479 76.2806 25.2023C76.7511 25.4566 77.2661 25.5837 77.8255 25.5837C78.385 25.5837 78.9 25.4566 79.3704 25.2023C79.8409 24.9479 80.216 24.5601 80.4957 24.0388C80.7882 23.5175 80.9344 22.869 80.9344 22.0934C80.9344 21.3305 80.7882 20.6883 80.4957 20.167C80.216 19.633 79.8409 19.2388 79.3704 18.9845C78.9 18.7302 78.385 18.6031 77.8255 18.6031ZM94.9453 16.8484V27.3575H92.752V25.0687C92.4849 25.8444 92.0208 26.4483 91.3596 26.8807C90.6985 27.3003 89.9292 27.5101 89.0518 27.5101C87.8312 27.5101 86.8521 27.1159 86.1146 26.3275C85.3771 25.5392 85.0084 24.4139 85.0084 22.9517V16.8484H87.1827V22.7228C87.1827 23.6764 87.4243 24.4139 87.9075 24.9352C88.3906 25.4438 89.0518 25.6981 89.891 25.6981C90.7557 25.6981 91.4487 25.4184 91.97 24.8589C92.4913 24.2995 92.752 23.4857 92.752 22.4176V16.8484H94.9453ZM101.002 16.7148C102.235 16.7148 103.22 17.0327 103.958 17.6685C104.708 18.2915 105.166 19.1307 105.331 20.1861H103.271C103.182 19.6139 102.934 19.1562 102.527 18.8129C102.133 18.4568 101.606 18.2788 100.944 18.2788C100.398 18.2788 99.9716 18.4123 99.6665 18.6793C99.374 18.9336 99.2278 19.2833 99.2278 19.7283C99.2278 20.0589 99.3359 20.326 99.552 20.5294C99.7682 20.7329 100.035 20.8918 100.353 21.0062C100.684 21.1207 101.148 21.2478 101.745 21.3877C102.534 21.5657 103.17 21.7501 103.653 21.9408C104.149 22.1315 104.568 22.4367 104.911 22.8563C105.268 23.2632 105.446 23.8227 105.446 24.5347C105.446 25.4121 105.109 26.1241 104.435 26.6709C103.773 27.2176 102.877 27.491 101.745 27.491C100.436 27.491 99.374 27.1858 98.5602 26.5755C97.7592 25.9652 97.276 25.1132 97.1107 24.0197H99.2278C99.2914 24.5919 99.5457 25.056 99.9907 25.4121C100.436 25.7681 101.021 25.9461 101.745 25.9461C102.267 25.9461 102.674 25.8126 102.966 25.5456C103.271 25.2658 103.424 24.9162 103.424 24.4966C103.424 24.1278 103.309 23.8354 103.08 23.6192C102.852 23.403 102.566 23.2378 102.222 23.1233C101.879 22.9962 101.408 22.869 100.811 22.7419C100.048 22.5638 99.4249 22.3858 98.9417 22.2078C98.4712 22.0298 98.0643 21.7437 97.721 21.3495C97.3904 20.9427 97.2251 20.3959 97.2251 19.7093C97.2251 18.8192 97.5557 18.1008 98.2169 17.554C98.8908 16.9946 99.819 16.7148 101.002 16.7148Z" fill="white"/>
<path fill-rule="evenodd" clip-rule="evenodd" d="M28.4434 3.57597C28.4434 4.23432 27.9097 4.76802 27.2514 4.76802H3.97351C3.0957 4.76802 2.3841 5.47962 2.3841 6.35742V19.4701C2.3841 20.1284 1.85041 20.6621 1.19206 20.6621C0.533706 20.6621 7.43517e-06 21.1958 7.1165e-06 21.8541L0 36.5561V4.76802V3.97331C0 3.09551 0.7116 2.38391 1.5894 2.38391H2.3841H114.437H115.232C116.11 2.38391 116.821 3.09551 116.821 3.97331V4.76802V36.5561V37.3508C116.821 38.2286 116.11 38.9402 115.232 38.9402H114.437L89.5698 38.9402C88.9115 38.9402 88.3778 38.4065 88.3778 37.7482C88.3778 37.0898 88.9115 36.5561 89.5698 36.5561H112.848C113.726 36.5561 114.437 35.8445 114.437 34.9667V21.8541C114.437 21.1958 114.971 20.6621 115.629 20.6621C116.287 20.6621 116.821 20.1284 116.821 19.4701V3.97333C116.821 3.09553 116.11 2.38393 115.232 2.38393H29.6355C28.9771 2.38393 28.4434 2.91762 28.4434 3.57597Z" fill="#EF4234"/>
<ellipse cx="114.04" cy="5.96009" rx="5.96026" ry="5.96027" fill="#EF4234"/>
<path d="M198 14.0462V15.3262H192.992V25.4702H191.552V14.0462H198ZM205.326 25.4702H203.902V18.0622H201.374C201.267 19.4169 201.134 20.5742 200.974 21.5342C200.814 22.4835 200.611 23.2569 200.366 23.8542C200.12 24.4515 199.827 24.8889 199.486 25.1662C199.144 25.4435 198.744 25.5822 198.286 25.5822C198.147 25.5822 198.008 25.5715 197.87 25.5502C197.742 25.5395 197.635 25.5129 197.55 25.4702V24.4142C197.614 24.4355 197.683 24.4515 197.758 24.4622C197.832 24.4729 197.907 24.4782 197.982 24.4782C198.216 24.4782 198.43 24.3822 198.622 24.1902C198.814 23.9982 198.984 23.7049 199.134 23.3102C199.294 22.9155 199.438 22.4195 199.566 21.8222C199.694 21.2142 199.806 20.4995 199.902 19.6782C199.998 18.8569 200.083 17.9289 200.158 16.8942H205.326V25.4702ZM211.296 16.7502C212.341 16.7502 213.114 16.9795 213.616 17.4382C214.117 17.8969 214.368 18.6275 214.368 19.6302V25.4702H213.344L213.072 24.2542H213.008C212.762 24.5635 212.506 24.8249 212.24 25.0382C211.984 25.2409 211.685 25.3902 211.344 25.4862C211.013 25.5822 210.608 25.6302 210.128 25.6302C209.616 25.6302 209.152 25.5395 208.736 25.3582C208.33 25.1769 208.01 24.8995 207.776 24.5262C207.541 24.1422 207.424 23.6622 207.424 23.0862C207.424 22.2329 207.76 21.5769 208.432 21.1182C209.104 20.6489 210.138 20.3929 211.536 20.3502L212.992 20.3022V19.7902C212.992 19.0755 212.837 18.5795 212.528 18.3022C212.218 18.0249 211.781 17.8862 211.216 17.8862C210.768 17.8862 210.341 17.9555 209.936 18.0942C209.53 18.2222 209.152 18.3715 208.799 18.5422L208.368 17.4862C208.741 17.2835 209.184 17.1129 209.696 16.9742C210.208 16.8249 210.741 16.7502 211.296 16.7502ZM211.712 21.3262C210.645 21.3689 209.904 21.5395 209.488 21.8382C209.082 22.1369 208.88 22.5582 208.88 23.1022C208.88 23.5822 209.024 23.9342 209.312 24.1582C209.61 24.3822 209.989 24.4942 210.448 24.4942C211.173 24.4942 211.776 24.2969 212.256 23.9022C212.736 23.4969 212.976 22.8782 212.976 22.0462V21.2782L211.712 21.3262ZM223.912 19.0542C223.912 19.5875 223.752 20.0035 223.432 20.3022C223.112 20.6009 222.702 20.8035 222.2 20.9102V20.9742C222.734 21.0489 223.198 21.2409 223.592 21.5502C223.987 21.8489 224.184 22.3182 224.184 22.9582C224.184 23.3209 224.115 23.6569 223.976 23.9662C223.848 24.2755 223.646 24.5422 223.368 24.7662C223.091 24.9902 222.734 25.1662 222.296 25.2942C221.859 25.4115 221.331 25.4702 220.712 25.4702H217.016V16.8942H220.696C221.304 16.8942 221.848 16.9635 222.328 17.1022C222.819 17.2302 223.203 17.4542 223.48 17.7742C223.768 18.0835 223.912 18.5102 223.912 19.0542ZM222.728 22.9582C222.728 22.4675 222.542 22.1155 222.168 21.9022C221.795 21.6889 221.246 21.5822 220.52 21.5822H218.424V24.3342H220.552C221.256 24.3342 221.795 24.2329 222.168 24.0302C222.542 23.8169 222.728 23.4595 222.728 22.9582ZM222.488 19.2302C222.488 18.8249 222.339 18.5315 222.04 18.3502C221.752 18.1582 221.278 18.0622 220.616 18.0622H218.424V20.4142H220.36C221.054 20.4142 221.582 20.3182 221.944 20.1262C222.307 19.9342 222.488 19.6355 222.488 19.2302ZM227.643 16.8942V20.4622H232.299V16.8942H233.707V25.4702H232.299V21.6462H227.643V25.4702H226.235V16.8942H227.643ZM239.671 16.7502C240.716 16.7502 241.489 16.9795 241.991 17.4382C242.492 17.8969 242.743 18.6275 242.743 19.6302V25.4702H241.719L241.447 24.2542H241.383C241.137 24.5635 240.881 24.8249 240.615 25.0382C240.359 25.2409 240.06 25.3902 239.719 25.4862C239.388 25.5822 238.983 25.6302 238.503 25.6302C237.991 25.6302 237.527 25.5395 237.111 25.3582C236.705 25.1769 236.385 24.8995 236.151 24.5262C235.916 24.1422 235.799 23.6622 235.799 23.0862C235.799 22.2329 236.135 21.5769 236.807 21.1182C237.479 20.6489 238.513 20.3929 239.911 20.3502L241.367 20.3022V19.7902C241.367 19.0755 241.212 18.5795 240.903 18.3022C240.593 18.0249 240.156 17.8862 239.591 17.8862C239.143 17.8862 238.716 17.9555 238.311 18.0942C237.905 18.2222 237.527 18.3715 237.174 18.5422L236.743 17.4862C237.116 17.2835 237.559 17.1129 238.071 16.9742C238.583 16.8249 239.116 16.7502 239.671 16.7502ZM240.087 21.3262C239.02 21.3689 238.279 21.5395 237.863 21.8382C237.457 22.1369 237.255 22.5582 237.255 23.1022C237.255 23.5822 237.399 23.9342 237.687 24.1582C237.985 24.3822 238.364 24.4942 238.823 24.4942C239.548 24.4942 240.151 24.2969 240.631 23.9022C241.111 23.4969 241.351 22.8782 241.351 22.0462V21.2782L240.087 21.3262ZM245.919 25.4702H244.287L246.735 21.8702C246.405 21.7849 246.085 21.6515 245.775 21.4702C245.466 21.2782 245.215 21.0169 245.023 20.6862C244.831 20.3449 244.735 19.9235 244.735 19.4222C244.735 18.6009 245.013 17.9769 245.567 17.5502C246.122 17.1129 246.858 16.8942 247.775 16.8942H251.615V25.4702H250.207V22.0622H248.127L245.919 25.4702ZM246.095 19.4382C246.095 19.9289 246.277 20.2969 246.639 20.5422C247.013 20.7769 247.53 20.8942 248.191 20.8942H250.207V18.0622H247.919C247.269 18.0622 246.799 18.1902 246.511 18.4462C246.234 18.7022 246.095 19.0329 246.095 19.4382Z" fill="white"/>
<path d="M300.184 24.7022C298.851 24.7022 297.709 24.5155 296.76 24.1422C295.811 23.7582 295.08 23.2035 294.568 22.4782C294.056 21.7529 293.8 20.8782 293.8 19.8542C293.8 18.8302 294.056 17.9609 294.568 17.2462C295.08 16.5209 295.811 15.9662 296.76 15.5822C297.709 15.1982 298.851 15.0062 300.184 15.0062C300.195 15.0062 300.221 15.0062 300.264 15.0062C300.307 15.0062 300.349 15.0062 300.392 15.0062C300.435 15.0062 300.461 15.0062 300.472 15.0062C301.816 15.0062 302.963 15.1982 303.912 15.5822C304.861 15.9662 305.592 16.5209 306.104 17.2462C306.616 17.9609 306.872 18.8302 306.872 19.8542C306.872 20.8782 306.616 21.7529 306.104 22.4782C305.603 23.2035 304.877 23.7582 303.928 24.1422C302.979 24.5155 301.843 24.7022 300.52 24.7022C300.499 24.7022 300.461 24.7022 300.408 24.7022C300.365 24.7022 300.317 24.7022 300.264 24.7022C300.221 24.7022 300.195 24.7022 300.184 24.7022ZM300.312 23.7742C300.333 23.7742 300.355 23.7742 300.376 23.7742C300.397 23.7742 300.413 23.7742 300.424 23.7742C301.544 23.7635 302.499 23.6089 303.288 23.3102C304.088 23.0009 304.696 22.5582 305.112 21.9822C305.528 21.3955 305.736 20.6862 305.736 19.8542C305.736 19.0115 305.523 18.3022 305.096 17.7262C304.68 17.1502 304.077 16.7129 303.288 16.4142C302.509 16.1049 301.565 15.9502 300.456 15.9502C300.445 15.9502 300.424 15.9502 300.392 15.9502C300.36 15.9502 300.333 15.9502 300.312 15.9502C299.181 15.9502 298.216 16.0995 297.416 16.3982C296.616 16.6969 296.003 17.1395 295.576 17.7262C295.149 18.3022 294.936 19.0115 294.936 19.8542C294.936 20.7075 295.149 21.4275 295.576 22.0142C296.013 22.5902 296.632 23.0275 297.432 23.3262C298.243 23.6249 299.203 23.7742 300.312 23.7742ZM299.784 25.8542V13.8862H300.888V25.8542H299.784ZM309.288 25.4702V17.0702H310.424V23.7422L316.04 17.0702H317.048V25.4702H315.912V18.7822L310.312 25.4702H309.288ZM318.768 25.4542L318.848 24.4782C318.922 24.4889 318.992 24.5049 319.056 24.5262C319.13 24.5369 319.194 24.5422 319.248 24.5422C319.589 24.5422 319.861 24.4142 320.064 24.1582C320.277 23.9022 320.437 23.5609 320.544 23.1342C320.65 22.7075 320.725 22.2275 320.768 21.6942C320.81 21.1502 320.848 20.6062 320.88 20.0622L321.024 17.0702H327.184V25.4702H326.048V17.7262L326.336 18.0622H321.76L322.032 17.7102L321.904 20.1422C321.872 20.8675 321.813 21.5609 321.728 22.2222C321.653 22.8835 321.53 23.4649 321.36 23.9662C321.2 24.4675 320.976 24.8622 320.688 25.1502C320.4 25.4275 320.032 25.5662 319.584 25.5662C319.456 25.5662 319.322 25.5555 319.184 25.5342C319.056 25.5129 318.917 25.4862 318.768 25.4542ZM334.029 20.0302C335.085 20.0409 335.885 20.2755 336.429 20.7342C336.984 21.1929 337.261 21.8542 337.261 22.7182C337.261 23.6142 336.962 24.3022 336.365 24.7822C335.778 25.2622 334.925 25.4969 333.805 25.4862L330.413 25.4702V17.0702H331.549V19.9982L334.029 20.0302ZM333.741 24.6222C334.52 24.6329 335.106 24.4782 335.501 24.1582C335.906 23.8275 336.109 23.3475 336.109 22.7182C336.109 22.0889 335.912 21.6302 335.517 21.3422C335.122 21.0435 334.53 20.8889 333.741 20.8782L331.549 20.8462V24.5902L333.741 24.6222ZM339.429 25.4702V17.0702H340.581L344.389 23.5182H343.909L347.781 17.0702H348.837V25.4702H347.797V18.3662L348.005 18.4622L344.389 24.4462H343.877L340.229 18.3982L340.469 18.3502V25.4702H339.429ZM360.261 25.4702V17.0702H361.397V25.4702H360.261ZM355.605 20.0302C356.661 20.0409 357.466 20.2755 358.021 20.7342C358.576 21.1929 358.853 21.8542 358.853 22.7182C358.853 23.6142 358.554 24.3022 357.957 24.7822C357.36 25.2622 356.506 25.4969 355.397 25.4862L352.069 25.4702V17.0702H353.205V19.9982L355.605 20.0302ZM355.317 24.6222C356.106 24.6329 356.698 24.4782 357.093 24.1582C357.498 23.8275 357.701 23.3475 357.701 22.7182C357.701 22.0889 357.504 21.6302 357.109 21.3422C356.714 21.0435 356.117 20.8889 355.317 20.8782L353.205 20.8462V24.5902L355.317 24.6222Z" fill="white"/>
<path d="M410.784 25.5662C409.941 25.5662 409.163 25.4275 408.448 25.1502C407.733 24.8622 407.115 24.4622 406.592 23.9502C406.069 23.4382 405.659 22.8355 405.36 22.1422C405.072 21.4489 404.928 20.6915 404.928 19.8702C404.928 19.0489 405.072 18.2915 405.36 17.5982C405.659 16.9049 406.069 16.3022 406.592 15.7902C407.125 15.2782 407.749 14.8835 408.464 14.6062C409.179 14.3182 409.957 14.1742 410.8 14.1742C411.611 14.1742 412.373 14.3129 413.088 14.5902C413.803 14.8569 414.405 15.2622 414.896 15.8062L414.144 16.5582C413.685 16.0889 413.179 15.7529 412.624 15.5502C412.069 15.3369 411.472 15.2302 410.832 15.2302C410.16 15.2302 409.536 15.3475 408.96 15.5822C408.384 15.8062 407.883 16.1315 407.456 16.5582C407.029 16.9742 406.693 17.4649 406.448 18.0302C406.213 18.5849 406.096 19.1982 406.096 19.8702C406.096 20.5422 406.213 21.1609 406.448 21.7262C406.693 22.2809 407.029 22.7715 407.456 23.1982C407.883 23.6142 408.384 23.9395 408.96 24.1742C409.536 24.3982 410.16 24.5102 410.832 24.5102C411.472 24.5102 412.069 24.4035 412.624 24.1902C413.179 23.9769 413.685 23.6355 414.144 23.1662L414.896 23.9182C414.405 24.4622 413.803 24.8729 413.088 25.1502C412.373 25.4275 411.605 25.5662 410.784 25.5662ZM420.294 25.5502C419.419 25.5502 418.651 25.3689 417.99 25.0062C417.329 24.6329 416.811 24.1262 416.438 23.4862C416.065 22.8355 415.878 22.0942 415.878 21.2622C415.878 20.4302 416.054 19.6942 416.406 19.0542C416.769 18.4142 417.259 17.9129 417.878 17.5502C418.507 17.1769 419.211 16.9902 419.99 16.9902C420.779 16.9902 421.478 17.1715 422.086 17.5342C422.705 17.8862 423.19 18.3875 423.542 19.0382C423.894 19.6782 424.07 20.4195 424.07 21.2622C424.07 21.3155 424.065 21.3742 424.054 21.4382C424.054 21.4915 424.054 21.5502 424.054 21.6142H416.742V20.7662H423.446L422.998 21.1022C422.998 20.4942 422.865 19.9555 422.598 19.4862C422.342 19.0062 421.99 18.6329 421.542 18.3662C421.094 18.0995 420.577 17.9662 419.99 17.9662C419.414 17.9662 418.897 18.0995 418.438 18.3662C417.979 18.6329 417.622 19.0062 417.366 19.4862C417.11 19.9662 416.982 20.5155 416.982 21.1342V21.3102C416.982 21.9502 417.121 22.5155 417.398 23.0062C417.686 23.4862 418.081 23.8649 418.582 24.1422C419.094 24.4089 419.675 24.5422 420.326 24.5422C420.838 24.5422 421.313 24.4515 421.75 24.2702C422.198 24.0889 422.582 23.8115 422.902 23.4382L423.542 24.1742C423.169 24.6222 422.699 24.9635 422.134 25.1982C421.579 25.4329 420.966 25.5502 420.294 25.5502ZM430.921 25.5502C430.195 25.5502 429.539 25.3849 428.953 25.0542C428.366 24.7129 427.897 24.2275 427.545 23.5982C427.203 22.9582 427.033 22.1795 427.033 21.2622C427.033 20.3449 427.203 19.5715 427.545 18.9422C427.886 18.3022 428.35 17.8169 428.937 17.4862C429.523 17.1555 430.185 16.9902 430.921 16.9902C431.721 16.9902 432.435 17.1715 433.065 17.5342C433.705 17.8862 434.206 18.3875 434.569 19.0382C434.931 19.6782 435.113 20.4195 435.113 21.2622C435.113 22.1155 434.931 22.8622 434.569 23.5022C434.206 24.1422 433.705 24.6435 433.065 25.0062C432.435 25.3689 431.721 25.5502 430.921 25.5502ZM426.585 28.5742V17.0702H427.673V19.5982L427.561 21.2782L427.721 22.9742V28.5742H426.585ZM430.841 24.5422C431.438 24.5422 431.971 24.4089 432.441 24.1422C432.91 23.8649 433.283 23.4809 433.561 22.9902C433.838 22.4889 433.977 21.9129 433.977 21.2622C433.977 20.6115 433.838 20.0409 433.561 19.5502C433.283 19.0595 432.91 18.6755 432.441 18.3982C431.971 18.1209 431.438 17.9822 430.841 17.9822C430.243 17.9822 429.705 18.1209 429.225 18.3982C428.755 18.6755 428.382 19.0595 428.105 19.5502C427.838 20.0409 427.705 20.6115 427.705 21.2622C427.705 21.9129 427.838 22.4889 428.105 22.9902C428.382 23.4809 428.755 23.8649 429.225 24.1422C429.705 24.4089 430.243 24.5422 430.841 24.5422ZM437.554 25.4702V17.0702H438.69V23.7422L444.306 17.0702H445.314V25.4702H444.178V18.7822L438.578 25.4702H437.554ZM453.785 25.4702V23.6142L453.737 23.3102V20.2062C453.737 19.4915 453.534 18.9422 453.129 18.5582C452.734 18.1742 452.142 17.9822 451.353 17.9822C450.809 17.9822 450.292 18.0729 449.801 18.2542C449.31 18.4355 448.894 18.6755 448.553 18.9742L448.041 18.1262C448.468 17.7635 448.98 17.4862 449.577 17.2942C450.174 17.0915 450.804 16.9902 451.465 16.9902C452.553 16.9902 453.39 17.2622 453.977 17.8062C454.574 18.3395 454.873 19.1555 454.873 20.2542V25.4702H453.785ZM450.889 25.5502C450.26 25.5502 449.71 25.4489 449.241 25.2462C448.782 25.0329 448.43 24.7449 448.185 24.3822C447.94 24.0089 447.817 23.5822 447.817 23.1022C447.817 22.6649 447.918 22.2702 448.121 21.9182C448.334 21.5555 448.676 21.2675 449.145 21.0542C449.625 20.8302 450.265 20.7182 451.065 20.7182H453.961V21.5662H451.097C450.286 21.5662 449.721 21.7102 449.401 21.9982C449.092 22.2862 448.937 22.6435 448.937 23.0702C448.937 23.5502 449.124 23.9342 449.497 24.2222C449.87 24.5102 450.393 24.6542 451.065 24.6542C451.705 24.6542 452.254 24.5102 452.713 24.2222C453.182 23.9235 453.524 23.4969 453.737 22.9422L453.993 23.7262C453.78 24.2809 453.406 24.7235 452.873 25.0542C452.35 25.3849 451.689 25.5502 450.889 25.5502ZM456.361 25.4542L456.441 24.4782C456.516 24.4889 456.585 24.5049 456.649 24.5262C456.724 24.5369 456.788 24.5422 456.841 24.5422C457.183 24.5422 457.455 24.4142 457.657 24.1582C457.871 23.9022 458.031 23.5609 458.137 23.1342C458.244 22.7075 458.319 22.2275 458.361 21.6942C458.404 21.1502 458.441 20.6062 458.473 20.0622L458.617 17.0702H464.777V25.4702H463.641V17.7262L463.929 18.0622H459.353L459.625 17.7102L459.497 20.1422C459.465 20.8675 459.407 21.5609 459.321 22.2222C459.247 22.8835 459.124 23.4649 458.953 23.9662C458.793 24.4675 458.569 24.8622 458.281 25.1502C457.993 25.4275 457.625 25.5662 457.177 25.5662C457.049 25.5662 456.916 25.5555 456.777 25.5342C456.649 25.5129 456.511 25.4862 456.361 25.4542ZM476.199 25.4702V17.0702H477.335V25.4702H476.199ZM471.543 20.0302C472.599 20.0409 473.404 20.2755 473.959 20.7342C474.513 21.1929 474.791 21.8542 474.791 22.7182C474.791 23.6142 474.492 24.3022 473.895 24.7822C473.297 25.2622 472.444 25.4969 471.335 25.4862L468.007 25.4702V17.0702H469.143V19.9982L471.543 20.0302ZM471.255 24.6222C472.044 24.6329 472.636 24.4782 473.031 24.1582C473.436 23.8275 473.639 23.3475 473.639 22.7182C473.639 22.0889 473.441 21.6302 473.047 21.3422C472.652 21.0435 472.055 20.8889 471.255 20.8782L469.143 20.8462V24.5902L471.255 24.6222Z" fill="white"/>
<path d="M520.888 25.4702V14.2702H521.864L526.984 23.0062H526.472L531.544 14.2702H532.52V25.4702H531.384V16.0462H531.656L526.984 24.0462H526.424L521.72 16.0462H522.024V25.4702H520.888ZM536.166 28.6542C535.772 28.6542 535.393 28.5902 535.03 28.4622C534.678 28.3342 534.374 28.1422 534.118 27.8862L534.646 27.0382C534.86 27.2409 535.089 27.3955 535.334 27.5022C535.59 27.6195 535.873 27.6782 536.182 27.6782C536.556 27.6782 536.876 27.5715 537.142 27.3582C537.42 27.1555 537.681 26.7929 537.926 26.2702L538.47 25.0382L538.598 24.8622L542.054 17.0702H543.174L538.966 26.4782C538.732 27.0222 538.47 27.4542 538.182 27.7742C537.905 28.0942 537.601 28.3182 537.27 28.4462C536.94 28.5849 536.572 28.6542 536.166 28.6542ZM538.406 25.7102L534.534 17.0702H535.718L539.142 24.7822L538.406 25.7102ZM543.049 25.4542L543.129 24.4782C543.203 24.4889 543.273 24.5049 543.337 24.5262C543.411 24.5369 543.475 24.5422 543.529 24.5422C543.87 24.5422 544.142 24.4142 544.345 24.1582C544.558 23.9022 544.718 23.5609 544.825 23.1342C544.931 22.7075 545.006 22.2275 545.049 21.6942C545.091 21.1502 545.129 20.6062 545.161 20.0622L545.305 17.0702H551.465V25.4702H550.329V17.7262L550.617 18.0622H546.041L546.313 17.7102L546.185 20.1422C546.153 20.8675 546.094 21.5609 546.009 22.2222C545.934 22.8835 545.811 23.4649 545.641 23.9662C545.481 24.4675 545.257 24.8622 544.969 25.1502C544.681 25.4275 544.313 25.5662 543.865 25.5662C543.737 25.5662 543.603 25.5555 543.465 25.5342C543.337 25.5129 543.198 25.4862 543.049 25.4542ZM558.31 20.0302C559.366 20.0409 560.166 20.2755 560.71 20.7342C561.265 21.1929 561.542 21.8542 561.542 22.7182C561.542 23.6142 561.243 24.3022 560.646 24.7822C560.059 25.2622 559.206 25.4969 558.086 25.4862L554.694 25.4702V17.0702H555.83V19.9982L558.31 20.0302ZM558.022 24.6222C558.801 24.6329 559.387 24.4782 559.782 24.1582C560.187 23.8275 560.39 23.3475 560.39 22.7182C560.39 22.0889 560.193 21.6302 559.798 21.3422C559.403 21.0435 558.811 20.8889 558.022 20.8782L555.83 20.8462V24.5902L558.022 24.6222ZM564.466 25.4702V17.7582L564.754 18.0622H561.282V17.0702H568.786V18.0622H565.314L565.602 17.7582V25.4702H564.466ZM574.758 25.5662C574.758 25.5662 574.737 25.5662 574.694 25.5662C574.651 25.5662 574.609 25.5662 574.566 25.5662C574.534 25.5662 574.507 25.5662 574.486 25.5662C572.822 25.5555 571.526 25.1769 570.598 24.4302C569.67 23.6835 569.206 22.6222 569.206 21.2462C569.206 19.8915 569.67 18.8462 570.598 18.1102C571.537 17.3635 572.854 16.9849 574.55 16.9742C574.561 16.9742 574.582 16.9742 574.614 16.9742C574.657 16.9742 574.694 16.9742 574.726 16.9742C574.758 16.9742 574.779 16.9742 574.79 16.9742C576.497 16.9849 577.825 17.3635 578.774 18.1102C579.723 18.8462 580.198 19.8915 580.198 21.2462C580.198 22.6329 579.718 23.6995 578.758 24.4462C577.809 25.1929 576.475 25.5662 574.758 25.5662ZM574.742 24.5742C575.691 24.5742 576.486 24.4462 577.126 24.1902C577.766 23.9235 578.251 23.5449 578.582 23.0542C578.913 22.5635 579.078 21.9609 579.078 21.2462C579.078 20.5529 578.913 19.9662 578.582 19.4862C578.251 18.9955 577.766 18.6222 577.126 18.3662C576.486 18.1102 575.691 17.9822 574.742 17.9822C574.731 17.9822 574.699 17.9822 574.646 17.9822C574.603 17.9822 574.577 17.9822 574.566 17.9822C573.638 17.9822 572.859 18.1155 572.23 18.3822C571.601 18.6382 571.126 19.0062 570.806 19.4862C570.486 19.9662 570.326 20.5529 570.326 21.2462C570.326 21.9502 570.486 22.5475 570.806 23.0382C571.137 23.5289 571.617 23.9075 572.246 24.1742C572.875 24.4302 573.649 24.5635 574.566 24.5742C574.587 24.5742 574.619 24.5742 574.662 24.5742C574.705 24.5742 574.731 24.5742 574.742 24.5742ZM574.134 28.5742V13.5982H575.238V28.5742H574.134ZM582.6 25.4702V17.0702H583.736V23.7422L589.352 17.0702H590.36V25.4702H589.224V18.7822L583.624 25.4702H582.6ZM592.08 25.4542L592.16 24.4782C592.235 24.4889 592.304 24.5049 592.368 24.5262C592.443 24.5369 592.507 24.5422 592.56 24.5422C592.901 24.5422 593.173 24.4142 593.376 24.1582C593.589 23.9022 593.749 23.5609 593.856 23.1342C593.963 22.7075 594.037 22.2275 594.08 21.6942C594.123 21.1502 594.16 20.6062 594.192 20.0622L594.336 17.0702H600.496V25.4702H599.36V17.7262L599.648 18.0622H595.072L595.344 17.7102L595.216 20.1422C595.184 20.8675 595.125 21.5609 595.04 22.2222C594.965 22.8835 594.843 23.4649 594.672 23.9662C594.512 24.4675 594.288 24.8622 594 25.1502C593.712 25.4275 593.344 25.5662 592.896 25.5662C592.768 25.5662 592.635 25.5555 592.496 25.5342C592.368 25.5129 592.229 25.4862 592.08 25.4542ZM607.341 20.0302C608.397 20.0409 609.197 20.2755 609.741 20.7342C610.296 21.1929 610.573 21.8542 610.573 22.7182C610.573 23.6142 610.275 24.3022 609.677 24.7822C609.091 25.2622 608.237 25.4969 607.117 25.4862L603.725 25.4702V17.0702H604.861V19.9982L607.341 20.0302ZM607.053 24.6222C607.832 24.6329 608.419 24.4782 608.813 24.1582C609.219 23.8275 609.421 23.3475 609.421 22.7182C609.421 22.0889 609.224 21.6302 608.829 21.3422C608.435 21.0435 607.843 20.8889 607.053 20.8782L604.861 20.8462V24.5902L607.053 24.6222ZM612.741 25.4702V17.0702H613.893L617.701 23.5182H617.221L621.093 17.0702H622.149V25.4702H621.109V18.3662L621.317 18.4622L617.701 24.4462H617.189L613.541 18.3982L613.781 18.3502V25.4702H612.741ZM633.574 25.4702V17.0702H634.71V25.4702H633.574ZM628.918 20.0302C629.974 20.0409 630.779 20.2755 631.334 20.7342C631.888 21.1929 632.166 21.8542 632.166 22.7182C632.166 23.6142 631.867 24.3022 631.27 24.7822C630.672 25.2622 629.819 25.4969 628.71 25.4862L625.382 25.4702V17.0702H626.518V19.9982L628.918 20.0302ZM628.63 24.6222C629.419 24.6329 630.011 24.4782 630.406 24.1582C630.811 23.8275 631.014 23.3475 631.014 22.7182C631.014 22.0889 630.816 21.6302 630.422 21.3422C630.027 21.0435 629.43 20.8889 628.63 20.8782L626.518 20.8462V24.5902L628.63 24.6222Z" fill="white"/>
</svg>
