<svg width="120" height="39" viewBox="0 0 120 39" fill="none" xmlns="http://www.w3.org/2000/svg">
<path d="M11.4373 13.8921V27.3575H9.26302V13.8921H11.4373ZM16.2428 13.2436V27.3575H14.0685V13.2436H16.2428ZM21.0482 13.2436V27.3575H18.8739V13.2436H21.0482ZM33.3684 16.8484V27.3575H31.175V25.0687C30.908 25.8444 30.4439 26.4483 29.7827 26.8807C29.1215 27.3003 28.3522 27.5101 27.4749 27.5101C26.2542 27.5101 25.2752 27.1159 24.5377 26.3275C23.8002 25.5392 23.4315 24.4139 23.4315 22.9517V16.8484H25.6058V22.7228C25.6058 23.6764 25.8473 24.4139 26.3305 24.9352C26.8137 25.4438 27.4749 25.6981 28.3141 25.6981C29.1787 25.6981 29.8717 25.4184 30.393 24.8589C30.9144 24.2995 31.175 23.4857 31.175 22.4176V16.8484H33.3684ZM49.1136 16.6767C50.3597 16.6767 51.3515 17.0709 52.089 17.8592C52.8392 18.6476 53.2143 19.7729 53.2143 21.2351V27.3575H51.04V21.464C51.04 20.5485 50.8111 19.8428 50.3534 19.3469C49.8956 18.8383 49.2662 18.584 48.4651 18.584C47.6132 18.584 46.933 18.8574 46.4244 19.4041C45.9285 19.9382 45.6805 20.7265 45.6805 21.7691V27.3575H43.5062V21.464C43.5062 20.5485 43.2773 19.8428 42.8196 19.3469C42.3618 18.8383 41.7324 18.584 40.9314 18.584C40.0795 18.584 39.3992 18.8574 38.8906 19.4041C38.3947 19.9382 38.1467 20.7265 38.1467 21.7691V27.3575H35.9724V16.8484H38.1467V19.0417C38.4138 18.2788 38.8588 17.6939 39.4818 17.287C40.1049 16.8801 40.836 16.6767 41.6752 16.6767C42.5526 16.6767 43.3091 16.8929 43.9449 17.3252C44.5934 17.7575 45.0638 18.3805 45.3563 19.1943C45.6614 18.406 46.151 17.7893 46.8249 17.3442C47.4988 16.8992 48.2617 16.6767 49.1136 16.6767ZM55.4479 13.7967C55.4479 13.428 55.575 13.1228 55.8293 12.8812C56.0836 12.6396 56.4206 12.5188 56.8402 12.5188C57.2598 12.5188 57.5968 12.6396 57.8511 12.8812C58.1181 13.1228 58.2516 13.428 58.2516 13.7967C58.2516 14.1654 58.1181 14.4642 57.8511 14.6931C57.5968 14.922 57.2598 15.0364 56.8402 15.0364C56.4206 15.0364 56.0836 14.922 55.8293 14.6931C55.575 14.4642 55.4479 14.1654 55.4479 13.7967ZM57.9274 16.8484V27.3575H55.7531V16.8484H57.9274ZM66.4329 16.6767C67.6536 16.6767 68.6327 17.0709 69.3702 17.8592C70.1076 18.6476 70.4764 19.7729 70.4764 21.2351V27.3575H68.3021V21.464C68.3021 20.5231 68.0605 19.7983 67.5773 19.2897C67.0941 18.7684 66.4329 18.5077 65.5937 18.5077C64.7291 18.5077 64.0361 18.7874 63.5148 19.3469C62.9935 19.8936 62.7328 20.7011 62.7328 21.7691V27.3575H60.5585V16.8484H62.7328V19.1562C63.0125 18.3678 63.483 17.7575 64.1442 17.3252C64.8054 16.8929 65.5683 16.6767 66.4329 16.6767ZM77.8255 16.7148C78.8428 16.7148 79.7582 16.931 80.572 17.3633C81.3858 17.7956 82.0216 18.4187 82.4793 19.2325C82.9371 20.0462 83.1659 20.9999 83.1659 22.0934C83.1659 23.1996 82.9371 24.1596 82.4793 24.9734C82.0216 25.7872 81.3858 26.4102 80.572 26.8425C79.7582 27.2748 78.8428 27.491 77.8255 27.491C76.8083 27.491 75.8928 27.2748 75.079 26.8425C74.278 26.4102 73.6422 25.7872 73.1718 24.9734C72.714 24.1469 72.4851 23.1869 72.4851 22.0934C72.4851 20.9999 72.714 20.0462 73.1718 19.2325C73.6422 18.4187 74.278 17.7956 75.079 17.3633C75.8928 16.931 76.8083 16.7148 77.8255 16.7148ZM77.8255 18.6031C77.2661 18.6031 76.7511 18.7302 76.2806 18.9845C75.8102 19.2388 75.4287 19.633 75.1363 20.167C74.8565 20.6883 74.7167 21.3305 74.7167 22.0934C74.7167 22.869 74.8565 23.5175 75.1363 24.0388C75.4287 24.5601 75.8102 24.9479 76.2806 25.2023C76.7511 25.4566 77.2661 25.5837 77.8255 25.5837C78.385 25.5837 78.9 25.4566 79.3704 25.2023C79.8409 24.9479 80.216 24.5601 80.4957 24.0388C80.7882 23.5175 80.9344 22.869 80.9344 22.0934C80.9344 21.3305 80.7882 20.6883 80.4957 20.167C80.216 19.633 79.8409 19.2388 79.3704 18.9845C78.9 18.7302 78.385 18.6031 77.8255 18.6031ZM94.9453 16.8484V27.3575H92.752V25.0687C92.4849 25.8444 92.0208 26.4483 91.3596 26.8807C90.6985 27.3003 89.9292 27.5101 89.0518 27.5101C87.8312 27.5101 86.8521 27.1159 86.1146 26.3275C85.3771 25.5392 85.0084 24.4139 85.0084 22.9517V16.8484H87.1827V22.7228C87.1827 23.6764 87.4243 24.4139 87.9075 24.9352C88.3906 25.4438 89.0518 25.6981 89.891 25.6981C90.7557 25.6981 91.4487 25.4184 91.97 24.8589C92.4913 24.2995 92.752 23.4857 92.752 22.4176V16.8484H94.9453ZM101.002 16.7148C102.235 16.7148 103.22 17.0327 103.958 17.6685C104.708 18.2915 105.166 19.1307 105.331 20.1861H103.271C103.182 19.6139 102.934 19.1562 102.527 18.8129C102.133 18.4568 101.606 18.2788 100.944 18.2788C100.398 18.2788 99.9716 18.4123 99.6665 18.6793C99.374 18.9336 99.2278 19.2833 99.2278 19.7283C99.2278 20.0589 99.3359 20.326 99.552 20.5294C99.7682 20.7329 100.035 20.8918 100.353 21.0062C100.684 21.1207 101.148 21.2478 101.745 21.3877C102.534 21.5657 103.17 21.7501 103.653 21.9408C104.149 22.1315 104.568 22.4367 104.911 22.8563C105.268 23.2632 105.446 23.8227 105.446 24.5347C105.446 25.4121 105.109 26.1241 104.435 26.6709C103.773 27.2176 102.877 27.491 101.745 27.491C100.436 27.491 99.374 27.1858 98.5602 26.5755C97.7592 25.9652 97.276 25.1132 97.1107 24.0197H99.2278C99.2914 24.5919 99.5457 25.056 99.9907 25.4121C100.436 25.7681 101.021 25.9461 101.745 25.9461C102.267 25.9461 102.674 25.8126 102.966 25.5456C103.271 25.2658 103.424 24.9162 103.424 24.4966C103.424 24.1278 103.309 23.8354 103.08 23.6192C102.852 23.403 102.566 23.2378 102.222 23.1233C101.879 22.9962 101.408 22.869 100.811 22.7419C100.048 22.5638 99.4249 22.3858 98.9417 22.2078C98.4712 22.0298 98.0643 21.7437 97.721 21.3495C97.3904 20.9427 97.2251 20.3959 97.2251 19.7093C97.2251 18.8192 97.5557 18.1008 98.2169 17.554C98.8908 16.9946 99.819 16.7148 101.002 16.7148Z" fill="white"/>
<path fill-rule="evenodd" clip-rule="evenodd" d="M28.4434 3.57597C28.4434 4.23432 27.9097 4.76802 27.2514 4.76802H3.97351C3.0957 4.76802 2.3841 5.47962 2.3841 6.35742V19.4701C2.3841 20.1284 1.85041 20.6621 1.19206 20.6621C0.533706 20.6621 7.43517e-06 21.1958 7.1165e-06 21.8541L0 36.5561V4.76802V3.97331C0 3.09551 0.7116 2.38391 1.5894 2.38391H2.3841H114.437H115.232C116.11 2.38391 116.821 3.09551 116.821 3.97331V4.76802V36.5561V37.3508C116.821 38.2286 116.11 38.9402 115.232 38.9402H114.437L89.5698 38.9402C88.9115 38.9402 88.3778 38.4065 88.3778 37.7482C88.3778 37.0898 88.9115 36.5561 89.5698 36.5561H112.848C113.726 36.5561 114.437 35.8445 114.437 34.9667V21.8541C114.437 21.1958 114.971 20.6621 115.629 20.6621C116.287 20.6621 116.821 20.1284 116.821 19.4701V3.97333C116.821 3.09553 116.11 2.38393 115.232 2.38393H29.6355C28.9771 2.38393 28.4434 2.91762 28.4434 3.57597Z" fill="#EF4234"/>
<ellipse cx="114.04" cy="5.96009" rx="5.96026" ry="5.96027" fill="#EF4234"/>
</svg>
