<svg width="117" height="37" viewBox="0 0 117 37" fill="none" xmlns="http://www.w3.org/2000/svg">
<path fill-rule="evenodd" clip-rule="evenodd" d="M28.4434 1.57597C28.4434 2.23432 27.9097 2.76802 27.2514 2.76802H3.97351C3.0957 2.76802 2.3841 3.47962 2.3841 4.35742V17.4701C2.3841 18.1284 1.85041 18.6621 1.19206 18.6621C0.533706 18.6621 7.43517e-06 19.1958 7.1165e-06 19.8541L0 34.5561V2.76802V1.97331C0 1.09551 0.7116 0.383911 1.5894 0.383911H2.3841H114.437H115.232C116.11 0.383911 116.821 1.09551 116.821 1.97331V2.76802V34.5561V35.3508C116.821 36.2286 116.11 36.9402 115.232 36.9402H114.437L89.5698 36.9402C88.9115 36.9402 88.3778 36.4065 88.3778 35.7482C88.3778 35.0898 88.9115 34.5561 89.5698 34.5561H112.848C113.726 34.5561 114.437 33.8445 114.437 32.9667V19.8541C114.437 19.1958 114.971 18.6621 115.629 18.6621C116.287 18.6621 116.821 18.1284 116.821 17.4701V1.97333C116.821 1.09553 116.11 0.383926 115.232 0.383926H29.6355C28.9771 0.383926 28.4434 0.917622 28.4434 1.57597Z" fill="#EF4234"/>
</svg>
